<?xml version="1.0" encoding="utf-8"?>
<!-- Generator: Adobe Illustrator 17.0.2, SVG Export Plug-In . SVG Version: 6.00 Build 0)  -->
<!DOCTYPE svg PUBLIC "-//W3C//DTD SVG 1.1//EN" "http://www.w3.org/Graphics/SVG/1.1/DTD/svg11.dtd">
<svg version="1.1" id="Layer_1" xmlns="http://www.w3.org/2000/svg" xmlns:xlink="http://www.w3.org/1999/xlink" x="0px" y="0px"
	 width="120px" height="37.576px" viewBox="83.5 47.5 120 37.576" enable-background="new 83.5 47.5 120 37.576"
	 xml:space="preserve">
<g id="Logo_Black">
	<g id="Logo_1_">
		<g>
			<g>
				<path fill="#333333" d="M109.414,57.839H83.5v16.996l12.052-15.452v15.452L109.414,57.839z M137.255,47.5l-29.673,37.391
					l0.238,0.185l29.673-37.391L137.255,47.5z M160.98,63.305l-1.809-6.665h-0.61l-1.809,6.665l-1.635-6.665h-0.621l1.94,7.666
					h0.599l1.831-6.676l1.831,6.676h0.599l1.94-7.666h-0.621L160.98,63.305z M167.815,62.443h3.619l0.676,1.863h0.632l-2.856-7.666
					h-0.523l-2.856,7.666h0.632L167.815,62.443z M169.624,57.415l1.624,4.512h-3.248L169.624,57.415z M182.606,58.696
					c0-1.335-0.959-2.056-2.224-2.056h-2.954v7.666h0.588v-3.532h2.136l1.853,3.532h0.687l-1.875-3.542
					C181.908,60.581,182.606,59.848,182.606,58.696z M178.018,60.258v-3.101h2.288c1.003,0,1.711,0.484,1.711,1.55
					c0,1.066-0.708,1.55-1.711,1.55L178.018,60.258L178.018,60.258z M190.521,56.64h-2.605v7.666h2.605
					c0.818,0,1.472-0.237,1.94-0.7c0.785-0.775,0.752-2.207,0.752-3.241c0-1.034,0.033-2.25-0.752-3.025
					C191.992,56.876,191.338,56.64,190.521,56.64z M192.046,63.197c-0.447,0.463-1.046,0.592-1.667,0.592h-1.875v-6.633h1.875
					c0.621,0,1.221,0.129,1.667,0.592c0.61,0.635,0.578,1.755,0.578,2.616C192.624,61.227,192.656,62.562,192.046,63.197z
					 M202.085,62.443l0.676,1.863h0.632l-2.856-7.666h-0.523l-2.856,7.666h0.632l0.676-1.863H202.085z M200.276,57.415l1.624,4.512
					h-3.248L200.276,57.415z M139.744,77.597l-4.479-6.644h-0.588v7.666h0.588v-6.664l4.479,6.665h0.588v-7.667h-0.588V77.597z
					 M145.838,78.62h4.708v-0.517h-4.12v-3.09h3.51v-0.517h-3.51V71.47h4.12v-0.517h-4.708V78.62z M154.808,71.47h2.31v7.15h0.588
					v-7.15h2.322v-0.517h-5.221V71.47z M170.602,77.619l-1.809-6.665h-0.61l-1.809,6.665l-1.635-6.665h-0.621l1.94,7.666h0.599
					l1.831-6.676l1.831,6.676h0.599l1.94-7.666h-0.621L170.602,77.619z M179.738,70.889c-0.741,0-1.428,0.28-1.94,0.786
					c-0.708,0.7-0.719,1.378-0.719,3.112c0,1.723,0.011,2.412,0.719,3.112c0.512,0.506,1.199,0.786,1.94,0.786
					s1.428-0.28,1.94-0.786c0.708-0.7,0.719-1.389,0.719-3.112c0-1.733-0.011-2.412-0.719-3.112
					C181.165,71.169,180.479,70.889,179.738,70.889z M181.209,77.575c-0.392,0.388-0.916,0.592-1.472,0.592
					s-1.079-0.204-1.472-0.592c-0.556-0.549-0.599-1.152-0.599-2.788s0.044-2.239,0.599-2.788c0.392-0.388,0.916-0.592,1.472-0.592
					s1.079,0.205,1.472,0.592c0.556,0.549,0.599,1.152,0.599,2.788C181.808,76.424,181.765,77.027,181.209,77.575z M192.774,73.01
					c0-1.335-0.959-2.056-2.224-2.056h-2.954v7.666h0.588v-3.532h2.136l1.853,3.532h0.687l-1.875-3.542
					C192.076,74.895,192.774,74.162,192.774,73.01z M188.185,74.572V71.47h2.289c1.002,0,1.711,0.484,1.711,1.55
					c0,1.066-0.708,1.55-1.711,1.55L188.185,74.572L188.185,74.572z M200.699,73.882l2.398-2.928h-0.708l-3.935,4.792v-4.792h-0.588
					v7.666h0.588v-2.078l1.853-2.218l2.496,4.296h0.698L200.699,73.882z"/>
			</g>
		</g>
	</g>
</g>
</svg>
